<?xml version="1.0" encoding="UTF-8"?><svg xmlns="http://www.w3.org/2000/svg" viewBox="0 0 99.27 113.73"><defs><style>.d{fill:#d18200;}.e{fill:#fbeac8;}.f{fill:#faedcf;}.g{fill:#f2ab00;}.h{fill:#facd00;}.i{fill:#231815;}.j{fill:#e1a419;}</style></defs><g id="a"/><g id="b"><g id="c"><g><path class="j" d="M1.66,60.59c.9,1.86,8.16,4.38,10.85,5.31,4.6,1.59,10.95,3.32,15.6,2.64-2.46-2.99-28.65-12.83-26.46-7.97v.03Z"/><g><path class="i" d="M29.28,67.73c-1.99-2.43-12.36-6.23-13.53-6.66-3.23-1.17-6.19-2.08-8.56-2.62-4.05-.93-5.38-.57-6.15-.09-.55,.34-1.04,.98-1.04,1.84,0,.34,.08,.73,.26,1.14,0,0,.02,.05,.03,.07,.85,1.75,4.13,3.45,11.72,6.08,6.86,2.37,12.35,3.28,16.32,2.71l2.66-.39-1.71-2.07Zm-16.28-3.11c-1.28-.44-3.67-1.27-5.85-2.2-1.38-.59-2.31-1.07-2.93-1.44,1.96,.26,5.55,1.13,10.87,3.08,2.86,1.05,5.31,2.08,7.23,2.97-2.69-.4-5.82-1.2-9.32-2.41Z"/><path class="i" d="M.3,61.43H.3Z"/></g><path class="i" d="M71.84,104.31c-.33-.53-1.34-2.07-1.57-1.98,1.39-.5,3.27-1.73,4.08-2.98,.97-1.48,.45-2.92,.04-4.49-.33-1.26-.26-2.59-.61-3.85-.31-1.1-.49-2.24-.68-3.37v-.02c-.28-1.69-.57-3.45-1.25-5.14l-.23-.59c-1-2.53-2.25-5.67-3.76-7.85-3.29-4.76-10.49-5.53-16.27-6.14h-.05c-1.47-.16-2.86-.31-4.07-.51l-4.59-.74-4.05-.65c-3.42-.56-7.47-1.27-11.48-2.31,0,0-.67-.18-.67-.18-1.08-.3-2.57-.71-3.96-.66-.8,.03-1.49,.22-2.05,.56-.67,.4-1.16,1.02-1.46,1.84-.18,.49-.28,1-.28,1.52,0,1.37,.63,2.78,1.88,4.2,.99,1.13,2.16,2.03,2.97,2.59,1.77,1.22,3.77,1.99,5.7,2.74,1.99,.77,3.86,1.5,5.44,2.66,1.03,.75,1.61,1.72,1.73,2.88,.01,.15,.02,.32,.02,.48,0,2.39-1.72,5.08-3.18,6.66-.29,.31-.72,.62-1.17,.95-1.02,.75-2.43,1.77-2.43,3.36,0,.62,.22,1.26,.65,1.9,1.21,1.81,3.07,2.06,4.56,2.26h.01c.72,.1,1.4,.19,1.91,.44,.45,.21,.56,.43,.6,.58,.02,.08,.03,.18,.03,.29,0,.58-.35,1.42-.98,2.38-.45,.29-1.08,.64-1.75,1.02h-.02c-2.1,1.2-3.63,2.12-4.79,3.05-1.45,1.16-2.12,2.2-2.12,3.27,0,.09,0,.18,.01,.27,.13,1.2,1.12,2.12,2.93,2.72,2.1,.7,4.45,.77,6.72,.83h0c.73,.02,1.49,.04,2.19,.09,3.68,.24,7.38,.32,10.51,.37,2.29,.03,4.69,.26,7.01,.47h.02c3.94,.37,8.01,.75,11.98,.27,2.01-.25,3.31-.93,3.97-2.09,.29-.51,.44-1.1,.44-1.74,0-1.85-.97-3.67-1.9-5.22-.02-.03-.05-.08-.09-.14Z"/><path class="f" d="M47.53,100.62c-2.28,1-4.28,.01-6.32-.75-.09,1.48-.85,2.82-2.28,3.71-1.46,.92-5.8,1.59-5.94,3.74-.13,2.05,3.47,1.82,5.04,1.96,2.42,.22,5.3,1.32,7.75,.24,2.25-1,3.41-3.48,4.47-5.46,.97-1.81-.19-4.53-2.71-3.44Z"/><path class="f" d="M68.11,103.47c-.82-1.05-1.81-1.67-2.65-1.22-1.79,.95-2.77,2.94-5.14,3.07-2.56,.14-3.92-2.38-6.04-3.29-2.65-1.14-2.14,1.91-2.67,3.38h0c-.39,1.11-2.76,2.2-2.08,3.58,.71,1.43,3.96,.46,5.26,.68,1.91,.31,3.77,.81,5.69,1.05,2.53,.32,7.08,.9,8.95-1.27,1.01-1.18,.08-4.2-1.32-5.98Z"/><path class="f" d="M70.15,90.2c-1.68-3.88-1.1-8.36-3.43-12.03-3.37-5.32-10.09-5.71-16.35-6.37-.1,2.87,.71,5.77,2,8.37,1.96,3.93,6.12,10.96,11.44,11.95,.24-1-.73-1.92-1.1-2.79-.34-.79-.7-1.58-1.13-2.33-.47-.82-1.02-1.63-1.26-2.54-.09-.32-.05-2.68,.7-1.87,.87,.95,1.23,2.21,1.76,3.34,1.15,2.46,1.57,5.46,4.14,7.1,1.07,.68,2.92,2.36,3.99,1.3,.96-.95,.27-2.22-.28-3.19-.18-.31-.33-.62-.47-.93Z"/><path class="d" d="M45.21,93.79c-1.45-1.36-3.78-.48-4.94-1.74-1.36-1.45,1.74-1.65,2.13-2.81,.39-1.07-.58-1.16-1.07-1.36-1.14-.42-2.22-.34-3.28-.06-.31,.49-.66,.98-1.04,1.45-1.52,1.85-4.36,3.69-2.71,4.67,.68,.4,2.11,.66,4.7,.71,1.31,.03,2.06,.81,2.75,1.75,1.16-.13,2.5-.15,3.26-.86,.48-.48,.68-1.26,.19-1.74Z"/><path class="d" d="M57.54,89.77c-.88-.86-1.71-1.76-2.48-2.67-.58-.68-1.14-1.36-1.67-2.03-.19-.24-.37-.47-.55-.71-.91,.1-1.72,.46-2.21,1.1-1.55,2.04,2.03,2.81,3.68,3.78,.29,.19,.78,.48,.58,.87-.39,1.45-3,2.62-1.55,4.36,.58,.58,1.65,.48,2.32-.1,1.26-1.26,1.16-3,1.84-4.55,.01-.02,.02-.04,.04-.05Z"/><path class="h" d="M57.6,97.67c1.74-.97,3.78,.39,5.71-.1,.19-.1,.48-.19,.58-.39,0-1.08-.73-2.1-.79-3.15-1.51-.81-2.92-1.85-4.23-3.01-.46-.4-.9-.82-1.33-1.25-.01,.02-.02,.03-.04,.05-.68,1.55-.58,3.29-1.84,4.55-.68,.58-1.74,.68-2.32,.1-1.45-1.74,1.16-2.91,1.55-4.36,.2-.39-.29-.68-.58-.87-1.65-.97-5.23-1.74-3.68-3.78,.49-.63,1.3-1,2.21-1.1-1.66-2.22-2.79-4.44-3.42-6.83-.2,.3-.44,.56-.72,.76-1.55,1.07-2.62-.29-3.78-1.36-.39-.39-1.16,.1-1.36,.58-.58,1.26-.68,2.71-1.84,3.68-.38,.28-.8,.37-1.2,.33-.17,.71-.36,1.43-.58,2.13-.46,1.44-1.04,2.83-1.88,4.16,1.06-.28,2.14-.35,3.28,.06,.48,.19,1.45,.29,1.07,1.36-.39,1.16-3.49,1.36-2.13,2.81,1.16,1.26,3.49,.39,4.94,1.74,.48,.48,.29,1.26-.19,1.74-.76,.71-2.1,.73-3.26,.86,.9,1.22,1.68,2.7,3.45,3.07,2.76,.57,5.93-1.93,8.53-.65,.74,.37,1.43,.92,2.09,1.51,.2-1.12,.77-2.13,1.78-2.66Z"/><path class="d" d="M70,96.01c-1.62-.31-3.33-.5-4.77-1.02-.73-.26-1.44-.59-2.13-.96,.06,1.05,.79,2.07,.79,3.15-.1,.19-.39,.29-.58,.39-1.94,.48-3.97-.87-5.71,.1-1.01,.53-1.58,1.53-1.78,2.66,.09,.08,.17,.15,.26,.23,1.83,1.66,3.54,3.47,6,2.22,1.24-.63,1.72-2.76,3.09-3.23,1.57-.54,3.23,.21,4.85,0,.22-.03,.46-.05,.72-.08,.19-.25,.33-.55,.43-.92,.33-1.17-.36-1.91-1.16-2.53Z"/><path class="d" d="M41.72,81.2c1.16-.97,1.26-2.42,1.84-3.68,.19-.48,.97-.97,1.36-.58,1.16,1.07,2.23,2.42,3.78,1.36,.28-.21,.52-.47,.72-.76-.49-1.83-.69-3.75-.61-5.84-1.72-.33-3.68-.51-5.44-.55-1.06,2.23-1.6,4.58-2.1,6.94-.24,1.15-.47,2.31-.75,3.45,.41,.04,.82-.05,1.2-.33Z"/><path class="f" d="M40.84,71.27c-.62-.88-1.7-1.39-2.97-1.84-3.18-1.13-7.32-1.87-10.75-2.13-5.11-.38-2.59,3.17,.2,4.6,1.77,.91,3.62,1.61,5.35,2.59,1.57,.89,3.95,3.35,5.97,3.17,2.24-.2,2.89-3.15,2.74-4.84-.06-.63-.25-1.13-.54-1.56Z"/><path class="i" d="M45.87,10.98c.45-.32,9.89-7.55,21.66,2.21,3.88,3.22,9.04,1.99,13.38,.79,2.63-.73,10.27-3.99,12.2-.6,0,0,1.36,2.39-5.28,8.65,.84-.79,4.71-.34,5.74-.25,2.43,.2,7.1,2.25,5.31,5.19-1.83,3.01-6.25,5.47-9.01,7.4,.82-.58,4.12,.36,4.77,.89,4.01,3.34-5.85,9.43-5.46,9.97,0,0,10.91,14.73-8.01,13.81l-54.91-.18s-14.34-.74-8.68-10.13c.26-.43-3.23-3.05-3.64-3.71-1.65-2.62-2.39-4.41-.32-7-.81,.46-7.86-8.45-7.83-9.7,.03-1.69,2.6-2.51,3.89-2.89,1.42-.42,3.18-.18,4.46-.77-.95-2.41-2.05-4.76-2.88-7.22-.35-1.03-.99-2.4-.95-3.52,.06-1.78,.45-2.43,2.05-2.61,1.36-.16,3.01,.43,4.27,.83,1.75,.55,7.29,1.76,8.22,3.28,0,0-6.99-11.41-2.39-14.91,2.11-1.6,3.72,1.18,4.67,2.59,1.27,1.9,2.71,3.4,4.53,4.79,3.62,2.75,9.85,6.21,14.23,3.12Z"/><path class="i" d="M32.65,27.46s-13.9,24.76-3.92,38.85c0,0,10.23,16.57,39.22,8.01,0,0,16.71-5.43,13.98-22.37,0,0-3.33-22.92-7.5-28.72-4.18-5.8-25.84-23.02-41.78,4.24Z"/><path class="e" d="M45.36,22.76c-.64,.5-1.12,1.25-1.65,1.87-1.14,1.33-2.37,2.55-3.53,3.86-1.27,1.43-2.46,2.95-3.9,4.2-.51,.44-1.05,.83-1.55,1.28-.28,.25-.83,1.09-1.18,1.17-.59,.12-.39-.41-.33-1.04,.2-1.95,.71-3.9,1.1-5.82-3.17,7.91-7.05,16.57-6.66,25.41,.35,7.83,5.04,13.65,11.5,16.73,7.42,3.54,16.36,4.05,24.19,1.87,6.88-1.91,13.23-6.47,15.27-14.16,2.19-8.25-.43-17.25-2.71-25.14-.38-1.3-.91-2.52-1.04-3.89,.17,1.83,1.04,5.96-.44,7.46-.97,.98-1.54-.29-2.02-1.08-1.31-2.13-2.9-4.02-4.44-5.96-.82-1.04-2.23-4.04-3.75-3.56-.87,.27-1.57,1.04-2.29,1.59-2.72,2.09-5.03,4.7-7.6,6.97-.95,.83-2.38,1.17-2.63-.51-.24-1.63,.91-3.31,.9-4.86-.02-2.28-3.89,.79-4.67,1.37-1.1,.81-2.97,3.07-4.41,2.99-2.53-.12,.44-7.01,.95-8.31,.32-.81,.6-1.62,.89-2.44Z"/><path class="i" d="M37.26,45.04c0,.96-.73,1.75-1.62,1.75s-1.62-.78-1.62-1.75,.72-1.75,1.62-1.75,1.62,.78,1.62,1.75Z"/><path class="i" d="M74.43,46.52c0,.97-.72,1.75-1.62,1.75s-1.62-.78-1.62-1.75,.73-1.75,1.62-1.75,1.62,.78,1.62,1.75Z"/><path class="g" d="M38.72,49.72c-1.2-.47-3.48-.47-4.02-.26-.75,.29-1.53,.73-2.16,1.24-.25,.2-.79,.54-.85,.92-.08,.55,1.13,1.65,1.55,1.91,.54,.34,1.2,.36,1.8,.24,.99-.21,1.76-.97,2.53-1.62,.32-.27,1.09-1.12,1.49-1.21,0,0,.43-.09,.43-.46,0-.33-.3-.58-.76-.75Z"/><path class="g" d="M69.99,51.47c1.08-.47,3.11-.47,3.59-.26,.67,.29,1.36,.73,1.93,1.24,.22,.2,.71,.54,.76,.92,.08,.55-1.01,1.65-1.38,1.91-.48,.34-1.07,.36-1.61,.24-.89-.21-1.57-.97-2.26-1.62-.29-.27-.97-1.12-1.33-1.21,0,0-.38-.09-.38-.46,0-.33,.27-.58,.67-.75Z"/><path class="e" d="M22.4,55.86c-1.39-.54-3.09-1.38-3.34-1.71-.87-1.15-.6-2.61-.03-3.83,.95-2.05,4.11-4.98,6.72-2.94,1.46,1.14,.94,2.43-.66,3-1.33,.47-2.82,.05-2.21,1.47,.28,.67,1.16,1.1,1.45,1.84,.71,1.87,.21,2.98-1.93,2.16Z"/><path class="e" d="M85.6,56.04c1.38-.54,3.05-1.38,3.3-1.71,.86-1.15,.59-2.61,.03-3.82-.94-2.05-4.06-4.98-6.65-2.94-1.44,1.14-.93,2.43,.65,3,1.32,.47,2.79,.05,2.18,1.47-.28,.67-1.15,1.1-1.43,1.84-.7,1.87-.2,2.98,1.91,2.16Z"/><path class="i" d="M48.18,49.64c-.41,.42-.41,1.09,0,1.5,.05,.05,1.27,1.24,3.19,1.87,1.8,.58,4.58,.78,7.6-1.6,.46-.37,.54-1.03,.17-1.49-.37-.46-1.03-.54-1.49-.17-4.29,3.4-7.83,.04-7.97-.11-.42-.41-1.09-.4-1.5,.01Z"/></g></g></g></svg>