<?xml version="1.0" encoding="utf-8"?>
<!-- Generator: Adobe Illustrator 26.2.1, SVG Export Plug-In . SVG Version: 6.00 Build 0)  -->
<svg version="1.1" id="레이어_1" xmlns="http://www.w3.org/2000/svg" xmlns:xlink="http://www.w3.org/1999/xlink" x="0px"
	 y="0px" viewBox="0 0 24 24" style="enable-background:new 0 0 24 24;" xml:space="preserve">
<style type="text/css">
	.st0{fill:#FFFFFF;}
	.st1{fill:none;}
</style>
<g>
	<g>
		<path class="st0" d="M10.5,9.8H8.6c0,0.7,0,1.4,0,2.1c0,0.9,0.1,1.7,0.2,2.6c0.1,1,0,2.1-0.3,3C8.4,18,8.2,18.2,8,18.4
			c-0.2,0.2-0.6,0.3-0.9,0.3c-0.4,0-0.8,0-1.2,0c-0.5,0-1-0.1-1.5-0.2c-1.1-0.1-1.6-0.6-1.8-1.8c-0.1-1,0.2-2,0.6-2.9
			c0.5-1.4,1.1-2.8,1.7-4.2c0,0,0-0.1,0.1-0.2L2.4,9.2C2,9.2,1.5,8.9,1.2,8.5C1,8.3,1.2,7.9,1.4,7.7l0,0c1.2-0.8,2.5-1.5,3.8-2
			c1.4-0.5,2.8-1.1,4.3-1.6C11,3.7,12.6,3.4,14.1,3l0,0c0.3-0.1,0.6-0.1,1-0.1c1,0,2-0.2,3-0.4v0c0.6-0.1,1.3-0.2,1.9-0.2
			c0.6,0,1,0.3,1.3,0.7c0.4,0.5,0.7,1,0.9,1.6c0.1,0.6,0,1-0.5,1.3c-0.6,0.4-1.2,0.6-1.9,0.7c-0.5,0.1-0.9,0.3-1.3,0.6
			c0.2,0.3,0.3,0.5,0.5,0.7v0c0.4,0.7,0.8,1.5,1,2.3c0.3,0.8,0.6,1.6,1,2.3v0c0.3,0.6,0.5,1.1,0.9,1.7c0.2,0.3,0.5,0.6,0.7,0.9l0,0
			c0.2,0.3,0.3,0.6,0.4,0.9c0.1,0.4-0.1,0.8-0.4,1c-0.4,0.4-1,0.6-1.6,0.5c-0.3,0-0.6-0.1-1-0.1c-0.8,0-1.7-0.1-2.4-0.4h0
			c-0.5-0.3-0.9-0.5-1.4-0.8c-0.1,0-0.1-0.1-0.2-0.1c-0.5-0.3-0.6-0.7-0.6-1.3c0-1.2-0.1-2.5,0-3.7c0-0.8,0.1-1.6,0.2-2.3l0,0
			c0-0.1,0.1-0.2,0.1-0.4l-3.1,1c0.3,0.5,0.7,1,1,1.5c0.4,0.8,0.7,1.7,0.9,2.6c0.2,0.9,0.5,1.7,0.7,2.6c0.2,0.9,0.6,1.6,0.6,2.5
			c0,0.3,0,0.6-0.1,0.9c0,0.1-0.1,0.2-0.2,0.3c-0.8,0.8-1.8,1.3-2.9,1.7c-0.3,0.1-0.5,0.1-0.8,0c-0.5-0.1-1-0.4-1.5-0.5
			C9.7,21,9.3,20.7,9,20.3c-0.2-0.2-0.3-0.4-0.2-0.7c0.1-0.9,0.2-1.7,0.5-2.6c0.1-0.6,0.2-1.2,0.3-1.9c0.1-0.5,0.1-1,0.2-1.6
			c0.2-1,0.3-2,0.5-3l0,0C10.3,10.3,10.4,10.1,10.5,9.8L10.5,9.8z"/>
	</g>
	<rect class="st1" width="24" height="24"/>
</g>
</svg>
